<svg id="svg" version="1.1" width="400" height="400" xmlns="http://www.w3.org/2000/svg" xmlns:xlink="http://www.w3.org/1999/xlink" style="display: block;"><g id="svgg"><path id="path0" d="M62.500 110.074 C 56.881 111.747,49.724 118.189,46.518 124.458 L 43.500 130.359 43.500 165.929 C 43.500 199.987,43.590 201.694,45.606 206.051 C 49.611 214.708,57.229 221.189,65.500 222.976 C 69.044 223.742,69.183 222.072,63.758 244.000 C 54.437 281.674,60.692 290.019,98.218 289.978 C 134.151 289.939,133.922 290.229,148.525 226.250 L 149.038 224.000 171.786 224.000 L 194.534 224.000 205.481 213.019 L 216.429 202.037 238.406 201.769 L 260.382 201.500 265.998 187.500 L 271.615 173.500 281.807 173.215 C 287.413 173.058,292.000 172.681,292.000 172.378 C 292.000 172.074,290.397 168.959,288.439 165.457 L 284.877 159.089 278.189 158.794 L 271.500 158.500 265.895 144.500 L 260.291 130.500 238.359 130.231 L 216.427 129.963 205.982 119.481 L 195.536 109.000 130.518 109.090 C 94.758 109.140,64.150 109.582,62.500 110.074 M98.764 166.278 L 99.029 197.055 84.793 196.778 C 66.419 196.419,67.904 199.301,68.240 164.668 C 68.556 132.072,66.943 134.828,85.479 135.223 L 98.500 135.500 98.764 166.278 M183.908 143.750 L 191.982 152.500 191.991 166.020 L 192.000 179.541 184.275 188.270 L 176.550 197.000 148.775 197.000 L 121.000 197.000 121.000 166.000 L 121.000 135.000 148.417 135.000 L 175.834 135.000 183.908 143.750 M250.609 158.392 L 253.342 166.784 250.386 174.642 L 247.430 182.500 233.215 182.777 L 219.000 183.055 219.000 166.527 L 219.000 150.000 233.438 150.000 L 247.876 150.000 250.609 158.392 M296.167 159.768 C 296.350 160.191,298.066 163.341,299.981 166.768 L 303.462 173.000 309.231 173.000 C 316.051 173.000,315.917 173.465,311.414 165.412 L 307.828 159.000 301.831 159.000 C 298.532 159.000,295.983 159.346,296.167 159.768 M319.167 159.750 C 319.350 160.162,321.075 163.307,323.000 166.738 L 326.500 172.976 332.809 172.988 C 336.279 172.995,338.939 172.662,338.719 172.250 C 338.500 171.838,336.641 168.688,334.588 165.250 L 330.855 159.000 324.844 159.000 C 321.538 159.000,318.983 159.338,319.167 159.750 M343.764 162.250 C 350.521 173.646,349.901 173.000,354.082 173.000 L 358.000 173.000 358.000 166.000 L 358.000 159.000 349.918 159.000 L 341.837 159.000 343.764 162.250 M127.000 224.555 C 127.000 227.498,116.544 267.134,115.550 267.959 C 112.715 270.311,81.548 268.835,81.191 266.331 C 80.942 264.580,88.785 229.895,90.481 225.250 C 90.943 223.983,127.000 223.297,127.000 224.555 " stroke="none" fill="#ff0040" fill-rule="evenodd"></path></g></svg>